<svg width="600" viewBox="0 0 600 240" xmlns="http://www.w3.org/2000/svg">
  <text style="font-family:'JetBrains Mono','SF Mono','Fira Code',monospace;font-size:58px;font-weight:500;fill:#1a1a18;letter-spacing:9px" x="300" y="120" text-anchor="middle" dominant-baseline="central">RES</text>

  <!-- LEFT SIDE (from R) -->
  <!-- Primary upper hypha -->
  <path d="M216,106 Q200,100 182,94 Q162,86 144,82 Q128,82 116,88" fill="none" stroke="#1a1a18" stroke-width="2" stroke-linecap="round"/>
  <!-- Branch 1: conidiophore -->
  <path d="M182,94 Q176,84 170,74 Q166,66 164,60" fill="none" stroke="#1a1a18" stroke-width="1.2" stroke-linecap="round"/>
  <circle cx="164" cy="56" r="3.5" fill="none" stroke="#1a1a18" stroke-width="1"/>
  <circle cx="160" cy="48" r="1.8" fill="#1a1a18" opacity="0.8"/>
  <circle cx="158" cy="43" r="1.6" fill="#1a1a18" opacity="0.6"/>
  <circle cx="157" cy="39" r="1.4" fill="#1a1a18" opacity="0.4"/>
  <circle cx="164" cy="48" r="1.8" fill="#1a1a18" opacity="0.8"/>
  <circle cx="164" cy="43" r="1.6" fill="#1a1a18" opacity="0.6"/>
  <circle cx="164" cy="39" r="1.4" fill="#1a1a18" opacity="0.4"/>
  <circle cx="169" cy="49" r="1.8" fill="#1a1a18" opacity="0.8"/>
  <circle cx="172" cy="44" r="1.6" fill="#1a1a18" opacity="0.6"/>
  <circle cx="174" cy="40" r="1.4" fill="#1a1a18" opacity="0.4"/>
  <!-- Sub-branch vegetative -->
  <path d="M170,74 Q162,76 154,74" fill="none" stroke="#1a1a18" stroke-width="0.6" stroke-linecap="round"/>
  <!-- Branch 2: smaller conidiophore -->
  <path d="M144,82 Q138,72 134,62" fill="none" stroke="#1a1a18" stroke-width="0.8" stroke-linecap="round"/>
  <circle cx="133" cy="58.5" r="2.5" fill="none" stroke="#1a1a18" stroke-width="0.8"/>
  <circle cx="130" cy="52.5" r="1.5" fill="#1a1a18" opacity="0.7"/>
  <circle cx="133" cy="52" r="1.5" fill="#1a1a18" opacity="0.7"/>
  <circle cx="136" cy="52.5" r="1.5" fill="#1a1a18" opacity="0.7"/>
  <circle cx="129" cy="48.5" r="1.2" fill="#1a1a18" opacity="0.45"/>
  <circle cx="137" cy="48.5" r="1.2" fill="#1a1a18" opacity="0.45"/>
  <!-- Vegetative tip -->
  <path d="M116,88 Q110,92 106,98" fill="none" stroke="#1a1a18" stroke-width="0.9" stroke-linecap="round"/>

  <!-- Lower left -->
  <path d="M216,136 Q200,142 184,146 Q166,148 150,144 Q136,138 128,128" fill="none" stroke="#1a1a18" stroke-width="1.6" stroke-linecap="round"/>
  <path d="M184,146 Q178,156 174,164 Q172,170 170,174" fill="none" stroke="#1a1a18" stroke-width="1" stroke-linecap="round"/>
  <circle cx="170" cy="178" r="3" fill="none" stroke="#1a1a18" stroke-width="0.9"/>
  <circle cx="166" cy="184.5" r="1.6" fill="#1a1a18" opacity="0.75"/>
  <circle cx="164" cy="189" r="1.4" fill="#1a1a18" opacity="0.55"/>
  <circle cx="170" cy="185" r="1.6" fill="#1a1a18" opacity="0.75"/>
  <circle cx="170" cy="189.5" r="1.4" fill="#1a1a18" opacity="0.55"/>
  <circle cx="174" cy="184.5" r="1.6" fill="#1a1a18" opacity="0.75"/>
  <circle cx="176" cy="189" r="1.4" fill="#1a1a18" opacity="0.55"/>
  <path d="M150,144 Q144,150 138,154" fill="none" stroke="#1a1a18" stroke-width="0.7" stroke-linecap="round"/>
  <path d="M200,142 Q198,152 200,162 Q202,168 206,172" fill="none" stroke="#1a1a18" stroke-width="1" stroke-linecap="round"/>
  <path d="M200,162 Q192,164 186,162" fill="none" stroke="#1a1a18" stroke-width="0.5" stroke-linecap="round"/>

  <!-- Anastomosis -->
  <path d="M154,74 Q150,82 148,92 Q148,102 150,112 Q152,118 150,126 Q148,134 150,144" fill="none" stroke="#1a1a18" stroke-width="0.5" stroke-linecap="round" stroke-dasharray="2 3" opacity="0.5"/>

  <!-- RIGHT SIDE (from S) -->
  <!-- Primary upper -->
  <path d="M366,110 Q384,102 404,96 Q426,88 446,86 Q464,88 478,94 Q488,102 492,112" fill="none" stroke="#1a1a18" stroke-width="2" stroke-linecap="round"/>
  <!-- Tall conidiophore -->
  <path d="M404,96 Q408,86 412,76 Q414,68 416,62 Q418,58 418,54" fill="none" stroke="#1a1a18" stroke-width="1.3" stroke-linecap="round"/>
  <circle cx="418" cy="50" r="4" fill="none" stroke="#1a1a18" stroke-width="1"/>
  <circle cx="412" cy="42" r="1.8" fill="#1a1a18" opacity="0.8"/>
  <circle cx="410" cy="37.5" r="1.6" fill="#1a1a18" opacity="0.6"/>
  <circle cx="409" cy="33.5" r="1.3" fill="#1a1a18" opacity="0.4"/>
  <circle cx="416" cy="41.5" r="1.8" fill="#1a1a18" opacity="0.8"/>
  <circle cx="415" cy="37" r="1.6" fill="#1a1a18" opacity="0.6"/>
  <circle cx="415" cy="33" r="1.3" fill="#1a1a18" opacity="0.4"/>
  <circle cx="420" cy="41.5" r="1.8" fill="#1a1a18" opacity="0.8"/>
  <circle cx="421" cy="37" r="1.6" fill="#1a1a18" opacity="0.6"/>
  <circle cx="421.5" cy="33" r="1.3" fill="#1a1a18" opacity="0.4"/>
  <circle cx="424" cy="43" r="1.8" fill="#1a1a18" opacity="0.8"/>
  <circle cx="426" cy="38.5" r="1.6" fill="#1a1a18" opacity="0.6"/>
  <circle cx="427.5" cy="34.5" r="1.3" fill="#1a1a18" opacity="0.4"/>
  <path d="M412,76 Q420,74 426,76" fill="none" stroke="#1a1a18" stroke-width="0.6" stroke-linecap="round"/>
  <!-- Smaller conidiophore -->
  <path d="M446,86 Q452,76 456,68 Q458,62 460,58" fill="none" stroke="#1a1a18" stroke-width="1" stroke-linecap="round"/>
  <circle cx="460" cy="54.5" r="3" fill="none" stroke="#1a1a18" stroke-width="0.9"/>
  <circle cx="456" cy="48" r="1.5" fill="#1a1a18" opacity="0.7"/>
  <circle cx="455" cy="44" r="1.2" fill="#1a1a18" opacity="0.45"/>
  <circle cx="460" cy="47.5" r="1.5" fill="#1a1a18" opacity="0.7"/>
  <circle cx="460" cy="43.5" r="1.2" fill="#1a1a18" opacity="0.45"/>
  <circle cx="464" cy="48" r="1.5" fill="#1a1a18" opacity="0.7"/>
  <circle cx="465" cy="44" r="1.2" fill="#1a1a18" opacity="0.45"/>
  <!-- Exploring tip -->
  <path d="M478,94 Q486,88 490,80 Q492,74 490,70" fill="none" stroke="#1a1a18" stroke-width="0.8" stroke-linecap="round"/>
  <path d="M426,88 Q430,96 436,100" fill="none" stroke="#1a1a18" stroke-width="0.7" stroke-linecap="round"/>

  <!-- Lower right -->
  <path d="M366,134 Q384,140 402,146 Q422,150 440,148 Q456,144 468,136" fill="none" stroke="#1a1a18" stroke-width="1.6" stroke-linecap="round"/>
  <path d="M402,146 Q408,156 412,164 Q414,170 414,174" fill="none" stroke="#1a1a18" stroke-width="1" stroke-linecap="round"/>
  <circle cx="414" cy="177.5" r="2.8" fill="none" stroke="#1a1a18" stroke-width="0.8"/>
  <circle cx="410" cy="183.5" r="1.4" fill="#1a1a18" opacity="0.7"/>
  <circle cx="414" cy="184" r="1.4" fill="#1a1a18" opacity="0.7"/>
  <circle cx="418" cy="183.5" r="1.4" fill="#1a1a18" opacity="0.7"/>
  <circle cx="409" cy="187.5" r="1.1" fill="#1a1a18" opacity="0.45"/>
  <circle cx="419" cy="187.5" r="1.1" fill="#1a1a18" opacity="0.45"/>
  <path d="M440,148 Q446,154 452,158" fill="none" stroke="#1a1a18" stroke-width="0.7" stroke-linecap="round"/>
  <path d="M384,140 Q386,150 384,160 Q382,166 378,170" fill="none" stroke="#1a1a18" stroke-width="1" stroke-linecap="round"/>
  <path d="M384,160 Q392,162 398,160" fill="none" stroke="#1a1a18" stroke-width="0.5" stroke-linecap="round"/>

  <!-- Septa nodes -->
  <circle cx="182" cy="94" r="1.8" fill="#1a1a18"/>
  <circle cx="184" cy="146" r="1.6" fill="#1a1a18"/>
  <circle cx="404" cy="96" r="1.8" fill="#1a1a18"/>
  <circle cx="446" cy="86" r="1.6" fill="#1a1a18"/>
  <circle cx="402" cy="146" r="1.6" fill="#1a1a18"/>

  <!-- lab + tagline -->
  <text style="font-family:'Inter','Helvetica Neue',Arial,sans-serif;font-size:13px;font-weight:400;fill:#6b6b66;letter-spacing:8px" x="300" y="168" text-anchor="middle">lab</text>
  <line x1="190" y1="188" x2="410" y2="188" stroke="#1a1a18" stroke-width="0.4" opacity="0.3"/>
  <text style="font-family:'Inter','Helvetica Neue',Arial,sans-serif;font-size:11px;font-weight:400;fill:#6b6b66;letter-spacing:3px" x="300" y="206" text-anchor="middle">FUNGAL BIOTECHNOLOGY</text>
</svg>
